<svg xmlns="http://www.w3.org/2000/svg" width="24" height="24" id="calendar">
  <path d="M21 23H3c-1.7 0-3-1.3-3-3V6c0-1.7 1.3-3 3-3h18c1.7 0 3 1.3 3 3v14c0 1.7-1.3 3-3 3zM3 5c-.6 0-1 .4-1 1v14c0 .6.4 1 1 1h18c.6 0 1-.4 1-1V6c0-.6-.4-1-1-1H3z"></path>
  <path d="M6 7c-.6 0-1-.4-1-1V2c0-.6.4-1 1-1s1 .4 1 1v4c0 .6-.4 1-1 1zm12 0c-.6 0-1-.4-1-1V2c0-.6.4-1 1-1s1 .4 1 1v4c0 .6-.4 1-1 1zm5 4H1c-.6 0-1-.4-1-1s.4-1 1-1h22c.6 0 1 .4 1 1s-.4 1-1 1z"></path>
  <circle cx="6" cy="14" r="1"></circle>
  <path d="M6 15.5c-.8 0-1.5-.7-1.5-1.5s.7-1.5 1.5-1.5 1.5.7 1.5 1.5-.7 1.5-1.5 1.5zm0-2c-.3 0-.5.2-.5.5s.2.5.5.5.5-.2.5-.5-.2-.5-.5-.5z"></path>
  <circle cx="6" cy="18" r="1"></circle>
  <path d="M6 19.5c-.8 0-1.5-.7-1.5-1.5s.7-1.5 1.5-1.5 1.5.7 1.5 1.5-.7 1.5-1.5 1.5zm0-2c-.3 0-.5.2-.5.5s.2.5.5.5.5-.2.5-.5-.2-.5-.5-.5z"></path>
  <circle cx="10" cy="18" r="1"></circle>
  <path d="M10 19.5c-.8 0-1.5-.7-1.5-1.5s.7-1.5 1.5-1.5 1.5.7 1.5 1.5-.7 1.5-1.5 1.5zm0-2c-.3 0-.5.2-.5.5s.2.5.5.5.5-.2.5-.5-.2-.5-.5-.5z"></path>
  <circle cx="10" cy="14" r="1"></circle>
  <path d="M10 15.5c-.8 0-1.5-.7-1.5-1.5s.7-1.5 1.5-1.5 1.5.7 1.5 1.5-.7 1.5-1.5 1.5zm0-2c-.3 0-.5.2-.5.5s.2.5.5.5.5-.2.5-.5-.2-.5-.5-.5z"></path>
  <circle cx="14" cy="14" r="1"></circle>
  <path d="M14 15.5c-.8 0-1.5-.7-1.5-1.5s.7-1.5 1.5-1.5 1.5.7 1.5 1.5-.7 1.5-1.5 1.5zm0-2c-.3 0-.5.2-.5.5s.2.5.5.5.5-.2.5-.5-.2-.5-.5-.5z"></path>
  <circle cx="14" cy="18" r="1"></circle>
  <path d="M14 19.5c-.8 0-1.5-.7-1.5-1.5s.7-1.5 1.5-1.5 1.5.7 1.5 1.5-.7 1.5-1.5 1.5zm0-2c-.3 0-.5.2-.5.5s.2.5.5.5.5-.2.5-.5-.2-.5-.5-.5z"></path>
  <circle cx="18" cy="18" r="1"></circle>
  <path d="M18 19.5c-.8 0-1.5-.7-1.5-1.5s.7-1.5 1.5-1.5 1.5.7 1.5 1.5-.7 1.5-1.5 1.5zm0-2c-.3 0-.5.2-.5.5s.2.5.5.5.5-.2.5-.5-.2-.5-.5-.5z"></path>
  <circle cx="18" cy="14" r="1"></circle>
  <path d="M18 15.5c-.8 0-1.5-.7-1.5-1.5s.7-1.5 1.5-1.5 1.5.7 1.5 1.5-.7 1.5-1.5 1.5zm0-2c-.3 0-.5.2-.5.5s.2.5.5.5.5-.2.5-.5-.2-.5-.5-.5z"></path>
</svg>
